<svg width="145" height="103" viewBox="0 0 145 103" fill="none" xmlns="http://www.w3.org/2000/svg">
<path fill-rule="evenodd" clip-rule="evenodd" d="M124.088 71.2294C133.03 62.6317 135.078 57.6982 133.739 48.7083L135.75 53.5343C138.244 40.8745 138.163 32.6217 128.511 25.7851C118.859 18.9484 116.446 13.7203 118.457 10.1008C120.468 6.48123 124.656 4.38123 130.924 3.66618C132.772 1.6818 116.688 -3.6956 102.773 4.06821L107.599 4.06821C94.1677 10.0284 91.1103 23.7743 99.9578 36.2413C103.759 40.8697 107.982 44.6344 111.722 47.9681C115.136 51.0113 118.147 53.6953 120.066 56.3493C122.37 59.5353 122.705 62.2242 123.115 65.5163C123.327 67.2108 123.558 69.0652 124.088 71.2294ZM15.1018 29.4043C21.2551 32.7628 25.0757 33.9262 32.3947 35.0346C25.592 39.2325 21.4322 40.2979 13.4931 40.2627L15.9061 36.2411C8.9309 37.8686 5.44989 41.0671 5.44989 50.3168C5.44989 59.5665 16.0286 63.5375 20.732 61.1752C21.1096 60.9856 21.5067 60.7952 21.9208 60.5967L21.9208 60.5967C23.9122 59.6421 26.2957 58.4996 28.7753 56.3492C32.204 53.3757 35.8164 49.1708 38.8293 45.4908C44.4741 38.5961 74.2195 41.4692 74.2195 41.4692C71.0169 40.1467 68.0546 39.6007 64.9449 39.0274C58.7707 37.8893 52.0155 36.644 41.6445 29.0022C34.0034 23.3719 28.4217 16.6814 26.7645 6.88328C38.709 13.0618 51.5751 9.90005 62.514 7.21187C68.6701 5.69906 74.2157 4.33623 78.6433 4.87255C82.8251 5.37909 89.0218 6.33676 89.5017 11.7092C89.6112 12.9352 89.6071 14.2764 89.6026 15.7396C89.5874 20.6883 89.5679 27.0326 93.9255 35.0346C97.5611 41.7109 102.252 45.4691 106.806 49.1179C109.324 51.1354 111.8 53.1195 114.034 55.5449C119.132 61.0823 121.272 72.8379 121.272 72.8379L130.12 92.1416C133.993 92.8165 135.423 94.3301 136.957 98.5762H126.098L107.599 73.24L94.7298 70.827C78.2382 66.5283 70.1964 65.0994 62.5569 68.0119C54.6432 79.6117 46.515 82.6583 31.1882 87.3156L32.3947 92.1416C36.8502 92.9006 38.0452 94.5019 38.8293 98.5762H28.7753L20.3299 85.707L31.1882 74.8486C36.8637 67.4299 39.1889 63.2274 39.6336 55.5449L31.1882 62.7838C24.3515 68.8162 21.2934 70.6144 12.2866 68.0119C3.94439 63.5738 0.593287 58.2272 1.0261 49.9146C1.48936 41.0174 6.02692 36.1701 15.9061 32.6216L15.1018 29.4043ZM66.1763 69.6206H64.1655C60.7928 74.1764 58.5813 76.3713 54.1115 79.6746L64.5677 98.5762H74.6217C73.3503 93.9069 71.9699 92.4485 68.1871 92.1416L66.1763 69.6206ZM89.0995 89.3265L100.36 74.0443L105.99 74.8487L109.61 80.4789L95.132 92.1416C98.8814 93.1342 100.299 94.4372 101.164 98.5762H91.1103L89.0995 89.3265ZM120.87 11.7093C121.674 7.47999 124.676 6.7399 129.268 5.6082C129.85 5.46473 130.457 5.31496 131.089 5.151C131.74 4.98208 132.435 5.13908 132.942 5.58193L135.348 7.68766L136.511 9.72202C136.644 9.95591 136.393 10.2211 136.152 10.1006L134.976 9.62987C134.445 9.4177 133.849 9.44248 133.338 9.69797L132.533 10.1006L136.422 11.0729C137.038 11.2268 137.608 11.5251 138.086 11.9431L143.311 16.5153C143.605 16.7725 143.722 17.1774 143.611 17.552L140.945 26.5528C140.72 27.309 140.073 27.8629 139.291 27.9671L135.423 28.4829C134.863 28.5575 134.294 28.3949 133.877 28.0141C132.629 26.8743 131.766 25.8302 130.937 24.8272L130.937 24.8271C130.188 23.9199 129.465 23.0462 128.511 22.1655C127.808 21.5158 126.991 20.8832 126.158 20.2375C123.251 17.9844 120.137 15.5712 120.87 11.7093ZM145 101H1V103H145V101Z" fill="#EB4434"/>
</svg>
