<svg width="157" height="153" viewBox="0 0 157 153" fill="none" xmlns="http://www.w3.org/2000/svg">
<path fill-rule="evenodd" clip-rule="evenodd" d="M120.5 130.5L133 123.5L152.211 131.852C153.744 132.519 153.831 134.661 152.357 135.45L120.942 152.263C120.652 152.419 120.328 152.5 119.998 152.5H40.9437C40.6515 152.5 40.3628 152.436 40.0979 152.312L6.62249 136.69C5.12944 135.994 5.0721 133.892 6.52495 133.115L24.5 123.5L38.5 132L1.59426 69.0142C1.22742 68.3881 1.22846 67.6125 1.59699 66.9874L39.9197 1.98427C40.2793 1.37435 40.9346 1 41.6426 1H116.835C117.555 1 118.22 1.38702 118.575 2.01332L155.44 67.0126C155.787 67.625 155.787 68.3749 155.439 68.9871L120.5 130.5ZM60.7109 36.9979C60.8899 36.6897 61.2193 36.5 61.5757 36.5H96.4322C96.7843 36.5 97.1105 36.6852 97.291 36.9875L115.197 66.9916C115.384 67.3051 115.385 67.6957 115.2 68.0105L97.7825 97.6676C97.4152 98.293 96.5251 98.3317 96.105 97.7404L84.0609 80.7894C83.7483 80.3494 83.8412 79.7407 84.271 79.414L93.6366 72.2962C94.3992 71.7166 93.9893 70.5 93.0315 70.5H65.2807C64.3432 70.5 63.9211 71.6739 64.6438 72.271L73.2958 79.4182C73.6946 79.7477 73.7763 80.327 73.4842 80.7539L61.9015 97.6824C61.4847 98.2916 60.5742 98.2548 60.2079 97.6139L43.2858 68.0001C43.1089 67.6906 43.1102 67.3102 43.2892 67.0019L60.7109 36.9979ZM79 97.5L88 107H70L79 97.5Z" fill="#EB4434"/>
<path d="M116.835 1H41.6426M116.835 1C117.555 1 118.22 1.38702 118.575 2.01332M116.835 1V1C117.555 1 118.22 1.38703 118.575 2.01332V2.01332M41.6426 1C40.9346 1 40.2793 1.37435 39.9197 1.98427M41.6426 1V1C40.9346 1 40.2793 1.37435 39.9197 1.98427V1.98427M39.9197 1.98427L1.59699 66.9874M1.59699 66.9874C1.22846 67.6125 1.22742 68.3881 1.59426 69.0142M1.59699 66.9874V66.9874C1.22847 67.6125 1.22742 68.3881 1.59426 69.0142V69.0142M1.59426 69.0142L38.5 132L24.5 123.5L6.52495 133.115M6.52495 133.115C5.0721 133.892 5.12944 135.994 6.62249 136.69M6.52495 133.115V133.115C5.0721 133.892 5.12944 135.994 6.62249 136.69V136.69M6.62249 136.69L40.0979 152.312M40.0979 152.312C40.3628 152.436 40.6515 152.5 40.9437 152.5M40.0979 152.312V152.312C40.3628 152.436 40.6515 152.5 40.9437 152.5V152.5M40.9437 152.5H119.998M119.998 152.5C120.328 152.5 120.652 152.419 120.942 152.263M119.998 152.5V152.5C120.328 152.5 120.652 152.419 120.942 152.263V152.263M120.942 152.263L152.357 135.45M152.357 135.45C153.831 134.661 153.744 132.519 152.211 131.852M152.357 135.45V135.45C153.831 134.661 153.744 132.519 152.211 131.852V131.852M152.211 131.852L133 123.5L120.5 130.5L155.439 68.9871M155.439 68.9871C155.787 68.3749 155.787 67.625 155.44 67.0126M155.439 68.9871V68.9871C155.787 68.3749 155.787 67.625 155.44 67.0126V67.0126M155.44 67.0126L118.575 2.01332M70 107H88L79 97.5L70 107ZM43.2858 68.0001L60.2079 97.6139C60.5742 98.2548 61.4847 98.2916 61.9015 97.6824L73.4842 80.7539C73.7763 80.3269 73.6946 79.7477 73.2958 79.4182L64.6438 72.271C63.9211 71.6739 64.3432 70.5 65.2807 70.5H93.0315C93.9893 70.5 94.3992 71.7166 93.6366 72.2962L84.271 79.414C83.8412 79.7407 83.7483 80.3494 84.0609 80.7894L96.105 97.7404C96.5251 98.3317 97.4152 98.293 97.7825 97.6676L115.2 68.0105C115.385 67.6957 115.384 67.3051 115.197 66.9916L97.291 36.9875C97.1105 36.6852 96.7843 36.5 96.4322 36.5H61.5757C61.2193 36.5 60.8899 36.6897 60.7109 36.9979L43.2892 67.0019C43.1102 67.3102 43.1089 67.6906 43.2858 68.0001Z" stroke="#EB4434"/>
</svg>
